<mxfile host="app.diagrams.net" agent="Mozilla/5.0 (Windows NT 10.0; Win64; x64) AppleWebKit/537.36 (KHTML, like Gecko) Chrome/131.0.0.0 Safari/537.36" version="24.8.6">
  <diagram name="1 oldal" id="39Sv8bva1wF6lLJyQfV2">
    <mxGraphModel dx="2261" dy="738" grid="1" gridSize="10" guides="1" tooltips="1" connect="1" arrows="1" fold="1" page="1" pageScale="1" pageWidth="827" pageHeight="1169" math="0" shadow="0">
      <root>
        <mxCell id="0" />
        <mxCell id="1" parent="0" />
        <mxCell id="MbpDUtjtTkJc41aYU_he-1" value="Étterem" style="ellipse;whiteSpace=wrap;html=1;strokeWidth=1;fillStyle=auto;perimeterSpacing=0;strokeColor=default;" parent="1" vertex="1">
          <mxGeometry x="1340" y="200" width="120" height="80" as="geometry" />
        </mxCell>
        <mxCell id="MbpDUtjtTkJc41aYU_he-10" value="Virágbolt" style="ellipse;whiteSpace=wrap;html=1;" parent="1" vertex="1">
          <mxGeometry x="1340" y="30" width="120" height="80" as="geometry" />
        </mxCell>
        <mxCell id="MbpDUtjtTkJc41aYU_he-12" value="alkalom" style="ellipse;whiteSpace=wrap;html=1;" parent="1" vertex="1">
          <mxGeometry x="1140" y="320" width="120" height="70" as="geometry" />
        </mxCell>
        <mxCell id="MbpDUtjtTkJc41aYU_he-13" value="ár" style="ellipse;whiteSpace=wrap;html=1;" parent="1" vertex="1">
          <mxGeometry x="1340" y="320" width="120" height="70" as="geometry" />
        </mxCell>
        <mxCell id="MbpDUtjtTkJc41aYU_he-14" value="Méret" style="ellipse;whiteSpace=wrap;html=1;" parent="1" vertex="1">
          <mxGeometry x="1540" y="320" width="120" height="70" as="geometry" />
        </mxCell>
        <mxCell id="MbpDUtjtTkJc41aYU_he-15" value="" style="endArrow=none;html=1;rounded=0;exitX=0.5;exitY=0;exitDx=0;exitDy=0;entryX=0;entryY=1;entryDx=0;entryDy=0;" parent="1" source="MbpDUtjtTkJc41aYU_he-12" target="MbpDUtjtTkJc41aYU_he-1" edge="1">
          <mxGeometry width="50" height="50" relative="1" as="geometry">
            <mxPoint x="1350" y="430" as="sourcePoint" />
            <mxPoint x="1400" y="380" as="targetPoint" />
          </mxGeometry>
        </mxCell>
        <mxCell id="MbpDUtjtTkJc41aYU_he-16" value="" style="endArrow=none;html=1;rounded=0;entryX=0.5;entryY=0;entryDx=0;entryDy=0;exitX=0.5;exitY=1;exitDx=0;exitDy=0;" parent="1" source="MbpDUtjtTkJc41aYU_he-1" target="MbpDUtjtTkJc41aYU_he-13" edge="1">
          <mxGeometry width="50" height="50" relative="1" as="geometry">
            <mxPoint x="700" y="470" as="sourcePoint" />
            <mxPoint x="750" y="420" as="targetPoint" />
          </mxGeometry>
        </mxCell>
        <mxCell id="MbpDUtjtTkJc41aYU_he-17" value="" style="endArrow=none;html=1;rounded=0;entryX=0.5;entryY=0;entryDx=0;entryDy=0;exitX=1;exitY=1;exitDx=0;exitDy=0;" parent="1" source="MbpDUtjtTkJc41aYU_he-1" target="MbpDUtjtTkJc41aYU_he-14" edge="1">
          <mxGeometry width="50" height="50" relative="1" as="geometry">
            <mxPoint x="1350" y="430" as="sourcePoint" />
            <mxPoint x="1400" y="380" as="targetPoint" />
          </mxGeometry>
        </mxCell>
        <mxCell id="MbpDUtjtTkJc41aYU_he-24" value="&lt;u&gt;CsokorId&lt;/u&gt;" style="rhombus;whiteSpace=wrap;html=1;" parent="1" vertex="1">
          <mxGeometry x="1060" y="240" width="80" height="80" as="geometry" />
        </mxCell>
        <mxCell id="MbpDUtjtTkJc41aYU_he-25" value="" style="endArrow=none;html=1;rounded=0;exitX=0.5;exitY=0;exitDx=0;exitDy=0;entryX=0;entryY=0.5;entryDx=0;entryDy=0;" parent="1" source="MbpDUtjtTkJc41aYU_he-24" target="MbpDUtjtTkJc41aYU_he-1" edge="1">
          <mxGeometry width="50" height="50" relative="1" as="geometry">
            <mxPoint x="1350" y="430" as="sourcePoint" />
            <mxPoint x="1400" y="380" as="targetPoint" />
          </mxGeometry>
        </mxCell>
        <mxCell id="MbpDUtjtTkJc41aYU_he-29" value="Főszakács" style="ellipse;whiteSpace=wrap;html=1;" parent="1" vertex="1">
          <mxGeometry x="740" y="200" width="120" height="80" as="geometry" />
        </mxCell>
        <mxCell id="MbpDUtjtTkJc41aYU_he-30" value="" style="endArrow=none;html=1;rounded=0;exitX=0.5;exitY=0;exitDx=0;exitDy=0;entryX=0.5;entryY=1;entryDx=0;entryDy=0;" parent="1" source="MbpDUtjtTkJc41aYU_he-1" target="MbpDUtjtTkJc41aYU_he-10" edge="1">
          <mxGeometry width="50" height="50" relative="1" as="geometry">
            <mxPoint x="390" y="430" as="sourcePoint" />
            <mxPoint x="440" y="380" as="targetPoint" />
          </mxGeometry>
        </mxCell>
        <mxCell id="MbpDUtjtTkJc41aYU_he-31" value="" style="endArrow=none;html=1;rounded=0;entryX=0.5;entryY=0;entryDx=0;entryDy=0;exitX=0;exitY=1;exitDx=0;exitDy=0;" parent="1" source="MbpDUtjtTkJc41aYU_he-10" target="MbpDUtjtTkJc41aYU_he-29" edge="1">
          <mxGeometry width="50" height="50" relative="1" as="geometry">
            <mxPoint x="390" y="430" as="sourcePoint" />
            <mxPoint x="440" y="380" as="targetPoint" />
          </mxGeometry>
        </mxCell>
        <mxCell id="MbpDUtjtTkJc41aYU_he-32" value="&lt;u&gt;MegrendelésID&lt;/u&gt;" style="rhombus;whiteSpace=wrap;html=1;" parent="1" vertex="1">
          <mxGeometry x="530" y="240" width="80" height="80" as="geometry" />
        </mxCell>
        <mxCell id="MbpDUtjtTkJc41aYU_he-33" value="" style="endArrow=none;html=1;rounded=0;entryX=0.5;entryY=0;entryDx=0;entryDy=0;exitX=0;exitY=0.5;exitDx=0;exitDy=0;" parent="1" source="MbpDUtjtTkJc41aYU_he-29" target="MbpDUtjtTkJc41aYU_he-32" edge="1">
          <mxGeometry width="50" height="50" relative="1" as="geometry">
            <mxPoint x="590" y="430" as="sourcePoint" />
            <mxPoint x="640" y="380" as="targetPoint" />
          </mxGeometry>
        </mxCell>
        <mxCell id="MbpDUtjtTkJc41aYU_he-34" value="Fizetési mód" style="ellipse;whiteSpace=wrap;html=1;" parent="1" vertex="1">
          <mxGeometry x="580" y="320" width="120" height="70" as="geometry" />
        </mxCell>
        <mxCell id="MbpDUtjtTkJc41aYU_he-35" value="Átvétel időpontja" style="ellipse;whiteSpace=wrap;html=1;" parent="1" vertex="1">
          <mxGeometry x="740" y="320" width="120" height="70" as="geometry" />
        </mxCell>
        <mxCell id="MbpDUtjtTkJc41aYU_he-36" value="Típusa" style="ellipse;whiteSpace=wrap;html=1;" parent="1" vertex="1">
          <mxGeometry x="890" y="320" width="120" height="70" as="geometry" />
        </mxCell>
        <mxCell id="MbpDUtjtTkJc41aYU_he-37" value="" style="endArrow=none;html=1;rounded=0;exitX=0;exitY=1;exitDx=0;exitDy=0;entryX=0.5;entryY=0;entryDx=0;entryDy=0;" parent="1" source="MbpDUtjtTkJc41aYU_he-29" target="MbpDUtjtTkJc41aYU_he-34" edge="1">
          <mxGeometry width="50" height="50" relative="1" as="geometry">
            <mxPoint x="590" y="430" as="sourcePoint" />
            <mxPoint x="640" y="380" as="targetPoint" />
          </mxGeometry>
        </mxCell>
        <mxCell id="MbpDUtjtTkJc41aYU_he-38" value="" style="endArrow=none;html=1;rounded=0;entryX=0.5;entryY=1;entryDx=0;entryDy=0;exitX=0.5;exitY=0;exitDx=0;exitDy=0;" parent="1" source="MbpDUtjtTkJc41aYU_he-35" target="MbpDUtjtTkJc41aYU_he-29" edge="1">
          <mxGeometry width="50" height="50" relative="1" as="geometry">
            <mxPoint x="590" y="430" as="sourcePoint" />
            <mxPoint x="640" y="380" as="targetPoint" />
          </mxGeometry>
        </mxCell>
        <mxCell id="MbpDUtjtTkJc41aYU_he-39" value="" style="endArrow=none;html=1;rounded=0;entryX=1;entryY=1;entryDx=0;entryDy=0;exitX=0.5;exitY=0;exitDx=0;exitDy=0;" parent="1" source="MbpDUtjtTkJc41aYU_he-36" target="MbpDUtjtTkJc41aYU_he-29" edge="1">
          <mxGeometry width="50" height="50" relative="1" as="geometry">
            <mxPoint x="590" y="430" as="sourcePoint" />
            <mxPoint x="640" y="380" as="targetPoint" />
          </mxGeometry>
        </mxCell>
        <mxCell id="MbpDUtjtTkJc41aYU_he-40" value="Szakács" style="ellipse;whiteSpace=wrap;html=1;" parent="1" vertex="1">
          <mxGeometry x="-300" y="205" width="120" height="80" as="geometry" />
        </mxCell>
        <mxCell id="MbpDUtjtTkJc41aYU_he-41" value="" style="endArrow=none;html=1;rounded=0;entryX=0;entryY=0;entryDx=0;entryDy=0;exitX=0.5;exitY=0;exitDx=0;exitDy=0;" parent="1" source="MbpDUtjtTkJc41aYU_he-40" target="MbpDUtjtTkJc41aYU_he-10" edge="1">
          <mxGeometry width="50" height="50" relative="1" as="geometry">
            <mxPoint x="670" y="430" as="sourcePoint" />
            <mxPoint x="720" y="380" as="targetPoint" />
          </mxGeometry>
        </mxCell>
        <mxCell id="MbpDUtjtTkJc41aYU_he-42" value="&lt;u&gt;VásárlóID&lt;/u&gt;" style="rhombus;whiteSpace=wrap;html=1;" parent="1" vertex="1">
          <mxGeometry x="-530" y="245" width="80" height="80" as="geometry" />
        </mxCell>
        <mxCell id="MbpDUtjtTkJc41aYU_he-43" value="" style="endArrow=none;html=1;rounded=0;entryX=0.5;entryY=0;entryDx=0;entryDy=0;exitX=0;exitY=0.5;exitDx=0;exitDy=0;" parent="1" source="MbpDUtjtTkJc41aYU_he-40" target="MbpDUtjtTkJc41aYU_he-42" edge="1">
          <mxGeometry width="50" height="50" relative="1" as="geometry">
            <mxPoint x="-410" y="435" as="sourcePoint" />
            <mxPoint x="-360" y="385" as="targetPoint" />
          </mxGeometry>
        </mxCell>
        <mxCell id="MbpDUtjtTkJc41aYU_he-44" value="Telefonszám" style="ellipse;whiteSpace=wrap;html=1;" parent="1" vertex="1">
          <mxGeometry x="-440" y="325" width="120" height="70" as="geometry" />
        </mxCell>
        <mxCell id="MbpDUtjtTkJc41aYU_he-45" value="E-mailcím" style="ellipse;whiteSpace=wrap;html=1;" parent="1" vertex="1">
          <mxGeometry x="-300" y="325" width="120" height="70" as="geometry" />
        </mxCell>
        <mxCell id="MbpDUtjtTkJc41aYU_he-46" value="Név" style="ellipse;whiteSpace=wrap;html=1;" parent="1" vertex="1">
          <mxGeometry x="-160" y="325" width="120" height="70" as="geometry" />
        </mxCell>
        <mxCell id="MbpDUtjtTkJc41aYU_he-48" value="" style="endArrow=none;html=1;rounded=0;exitX=0.5;exitY=0;exitDx=0;exitDy=0;entryX=0;entryY=1;entryDx=0;entryDy=0;" parent="1" source="MbpDUtjtTkJc41aYU_he-44" target="MbpDUtjtTkJc41aYU_he-40" edge="1">
          <mxGeometry width="50" height="50" relative="1" as="geometry">
            <mxPoint x="-410" y="435" as="sourcePoint" />
            <mxPoint x="-360" y="385" as="targetPoint" />
          </mxGeometry>
        </mxCell>
        <mxCell id="MbpDUtjtTkJc41aYU_he-49" value="" style="endArrow=none;html=1;rounded=0;exitX=0.5;exitY=0;exitDx=0;exitDy=0;entryX=0.5;entryY=1;entryDx=0;entryDy=0;" parent="1" source="MbpDUtjtTkJc41aYU_he-45" target="MbpDUtjtTkJc41aYU_he-40" edge="1">
          <mxGeometry width="50" height="50" relative="1" as="geometry">
            <mxPoint x="-410" y="435" as="sourcePoint" />
            <mxPoint x="-360" y="385" as="targetPoint" />
          </mxGeometry>
        </mxCell>
        <mxCell id="MbpDUtjtTkJc41aYU_he-50" value="" style="endArrow=none;html=1;rounded=0;entryX=1;entryY=1;entryDx=0;entryDy=0;exitX=0.5;exitY=0;exitDx=0;exitDy=0;" parent="1" source="MbpDUtjtTkJc41aYU_he-46" target="MbpDUtjtTkJc41aYU_he-40" edge="1">
          <mxGeometry width="50" height="50" relative="1" as="geometry">
            <mxPoint x="-410" y="435" as="sourcePoint" />
            <mxPoint x="-360" y="385" as="targetPoint" />
          </mxGeometry>
        </mxCell>
        <mxCell id="MbpDUtjtTkJc41aYU_he-51" value="Gyakornok" style="ellipse;whiteSpace=wrap;html=1;" parent="1" vertex="1">
          <mxGeometry x="1860" y="200" width="120" height="80" as="geometry" />
        </mxCell>
        <mxCell id="MbpDUtjtTkJc41aYU_he-52" value="" style="endArrow=none;html=1;rounded=0;entryX=1;entryY=1;entryDx=0;entryDy=0;exitX=0.5;exitY=0;exitDx=0;exitDy=0;" parent="1" source="MbpDUtjtTkJc41aYU_he-51" target="MbpDUtjtTkJc41aYU_he-10" edge="1">
          <mxGeometry width="50" height="50" relative="1" as="geometry">
            <mxPoint x="1190" y="430" as="sourcePoint" />
            <mxPoint x="1240" y="380" as="targetPoint" />
          </mxGeometry>
        </mxCell>
        <mxCell id="MbpDUtjtTkJc41aYU_he-53" value="&lt;u&gt;SzalagID&lt;/u&gt;" style="rhombus;whiteSpace=wrap;html=1;" parent="1" vertex="1">
          <mxGeometry x="1660" y="240" width="80" height="80" as="geometry" />
        </mxCell>
        <mxCell id="MbpDUtjtTkJc41aYU_he-54" value="" style="endArrow=none;html=1;rounded=0;entryX=0.5;entryY=0;entryDx=0;entryDy=0;exitX=0;exitY=0.5;exitDx=0;exitDy=0;" parent="1" source="MbpDUtjtTkJc41aYU_he-51" edge="1">
          <mxGeometry width="50" height="50" relative="1" as="geometry">
            <mxPoint x="1290" y="430" as="sourcePoint" />
            <mxPoint x="1700" y="240" as="targetPoint" />
          </mxGeometry>
        </mxCell>
        <mxCell id="MbpDUtjtTkJc41aYU_he-55" value="vastagság (mm)" style="ellipse;whiteSpace=wrap;html=1;" parent="1" vertex="1">
          <mxGeometry x="1710" y="320" width="120" height="70" as="geometry" />
        </mxCell>
        <mxCell id="MbpDUtjtTkJc41aYU_he-56" value="Szín" style="ellipse;whiteSpace=wrap;html=1;fillColor=#dae8fc;strokeColor=#6c8ebf;" parent="1" vertex="1">
          <mxGeometry x="1860" y="320" width="120" height="70" as="geometry" />
        </mxCell>
        <mxCell id="MbpDUtjtTkJc41aYU_he-57" value="méterár" style="ellipse;whiteSpace=wrap;html=1;" parent="1" vertex="1">
          <mxGeometry x="2020" y="320" width="120" height="70" as="geometry" />
        </mxCell>
        <mxCell id="MbpDUtjtTkJc41aYU_he-58" value="" style="endArrow=none;html=1;rounded=0;exitX=0.5;exitY=0;exitDx=0;exitDy=0;entryX=0.042;entryY=0.775;entryDx=0;entryDy=0;entryPerimeter=0;" parent="1" source="MbpDUtjtTkJc41aYU_he-55" target="MbpDUtjtTkJc41aYU_he-51" edge="1">
          <mxGeometry width="50" height="50" relative="1" as="geometry">
            <mxPoint x="1690" y="430" as="sourcePoint" />
            <mxPoint x="1740" y="380" as="targetPoint" />
          </mxGeometry>
        </mxCell>
        <mxCell id="MbpDUtjtTkJc41aYU_he-59" value="" style="endArrow=none;html=1;rounded=0;exitX=0.5;exitY=0;exitDx=0;exitDy=0;entryX=0.5;entryY=1;entryDx=0;entryDy=0;" parent="1" source="MbpDUtjtTkJc41aYU_he-56" target="MbpDUtjtTkJc41aYU_he-51" edge="1">
          <mxGeometry width="50" height="50" relative="1" as="geometry">
            <mxPoint x="1690" y="430" as="sourcePoint" />
            <mxPoint x="1740" y="380" as="targetPoint" />
          </mxGeometry>
        </mxCell>
        <mxCell id="MbpDUtjtTkJc41aYU_he-60" value="" style="endArrow=none;html=1;rounded=0;exitX=0.5;exitY=0;exitDx=0;exitDy=0;entryX=1;entryY=1;entryDx=0;entryDy=0;" parent="1" source="MbpDUtjtTkJc41aYU_he-57" target="MbpDUtjtTkJc41aYU_he-51" edge="1">
          <mxGeometry width="50" height="50" relative="1" as="geometry">
            <mxPoint x="1690" y="430" as="sourcePoint" />
            <mxPoint x="1740" y="380" as="targetPoint" />
          </mxGeometry>
        </mxCell>
        <mxCell id="MbpDUtjtTkJc41aYU_he-67" value="" style="endArrow=none;html=1;rounded=0;exitX=1;exitY=0.5;exitDx=0;exitDy=0;entryX=0.5;entryY=0;entryDx=0;entryDy=0;" parent="1" source="MbpDUtjtTkJc41aYU_he-10" target="MbpDUtjtTkJc41aYU_he-163" edge="1">
          <mxGeometry width="50" height="50" relative="1" as="geometry">
            <mxPoint x="1910" y="430" as="sourcePoint" />
            <mxPoint x="2461" y="195" as="targetPoint" />
          </mxGeometry>
        </mxCell>
        <mxCell id="MbpDUtjtTkJc41aYU_he-70" value="db" style="ellipse;whiteSpace=wrap;html=1;" parent="1" vertex="1">
          <mxGeometry x="2430" y="320" width="120" height="80" as="geometry" />
        </mxCell>
        <mxCell id="MbpDUtjtTkJc41aYU_he-71" value="Vendég" style="ellipse;whiteSpace=wrap;html=1;" parent="1" vertex="1">
          <mxGeometry x="2980" y="200" width="120" height="80" as="geometry" />
        </mxCell>
        <mxCell id="MbpDUtjtTkJc41aYU_he-73" value="Vásárló" style="ellipse;whiteSpace=wrap;html=1;" parent="1" vertex="1">
          <mxGeometry x="-292.5" y="210" width="105" height="70" as="geometry" />
        </mxCell>
        <mxCell id="MbpDUtjtTkJc41aYU_he-74" value="Csokor" style="ellipse;whiteSpace=wrap;html=1;" parent="1" vertex="1">
          <mxGeometry x="1345" y="205" width="110" height="70" as="geometry" />
        </mxCell>
        <mxCell id="MbpDUtjtTkJc41aYU_he-75" value="Megrendelés" style="ellipse;whiteSpace=wrap;html=1;" parent="1" vertex="1">
          <mxGeometry x="745" y="205" width="110" height="70" as="geometry" />
        </mxCell>
        <mxCell id="MbpDUtjtTkJc41aYU_he-76" value="Szalag" style="ellipse;whiteSpace=wrap;html=1;" parent="1" vertex="1">
          <mxGeometry x="1865" y="205" width="110" height="70" as="geometry" />
        </mxCell>
        <mxCell id="MbpDUtjtTkJc41aYU_he-77" value="" style="endArrow=none;html=1;rounded=0;exitX=0.5;exitY=0;exitDx=0;exitDy=0;entryX=0.5;entryY=1;entryDx=0;entryDy=0;" parent="1" source="MbpDUtjtTkJc41aYU_he-70" target="MbpDUtjtTkJc41aYU_he-164" edge="1">
          <mxGeometry width="50" height="50" relative="1" as="geometry">
            <mxPoint x="2190" y="430" as="sourcePoint" />
            <mxPoint x="2511" y="235" as="targetPoint" />
          </mxGeometry>
        </mxCell>
        <mxCell id="MbpDUtjtTkJc41aYU_he-83" value="&lt;u&gt;VirágID&lt;/u&gt;" style="rhombus;whiteSpace=wrap;html=1;" parent="1" vertex="1">
          <mxGeometry x="3331" y="240" width="80" height="80" as="geometry" />
        </mxCell>
        <mxCell id="MbpDUtjtTkJc41aYU_he-84" value="" style="endArrow=none;html=1;rounded=0;exitX=1;exitY=0.5;exitDx=0;exitDy=0;entryX=0.5;entryY=0;entryDx=0;entryDy=0;" parent="1" source="MbpDUtjtTkJc41aYU_he-71" target="MbpDUtjtTkJc41aYU_he-83" edge="1">
          <mxGeometry width="50" height="50" relative="1" as="geometry">
            <mxPoint x="2820" y="310" as="sourcePoint" />
            <mxPoint x="2870" y="260" as="targetPoint" />
          </mxGeometry>
        </mxCell>
        <mxCell id="MbpDUtjtTkJc41aYU_he-85" value="Fajta" style="ellipse;whiteSpace=wrap;html=1;" parent="1" vertex="1">
          <mxGeometry x="3200" y="320" width="100" height="70" as="geometry" />
        </mxCell>
        <mxCell id="MbpDUtjtTkJc41aYU_he-86" value="méret" style="ellipse;whiteSpace=wrap;html=1;" parent="1" vertex="1">
          <mxGeometry x="2760" y="320" width="100" height="70" as="geometry" />
        </mxCell>
        <mxCell id="MbpDUtjtTkJc41aYU_he-87" value="Szín" style="ellipse;whiteSpace=wrap;html=1;fillColor=#dae8fc;strokeColor=#6c8ebf;" parent="1" vertex="1">
          <mxGeometry x="2985" y="320" width="110" height="70" as="geometry" />
        </mxCell>
        <mxCell id="MbpDUtjtTkJc41aYU_he-94" value="" style="endArrow=none;html=1;rounded=0;exitX=0.5;exitY=0;exitDx=0;exitDy=0;entryX=0;entryY=1;entryDx=0;entryDy=0;" parent="1" source="MbpDUtjtTkJc41aYU_he-86" target="MbpDUtjtTkJc41aYU_he-71" edge="1">
          <mxGeometry width="50" height="50" relative="1" as="geometry">
            <mxPoint x="2850" y="310" as="sourcePoint" />
            <mxPoint x="2900" y="260" as="targetPoint" />
          </mxGeometry>
        </mxCell>
        <mxCell id="MbpDUtjtTkJc41aYU_he-95" value="" style="endArrow=none;html=1;rounded=0;exitX=0.5;exitY=0;exitDx=0;exitDy=0;entryX=0.5;entryY=1;entryDx=0;entryDy=0;" parent="1" source="MbpDUtjtTkJc41aYU_he-87" target="MbpDUtjtTkJc41aYU_he-71" edge="1">
          <mxGeometry width="50" height="50" relative="1" as="geometry">
            <mxPoint x="2850" y="310" as="sourcePoint" />
            <mxPoint x="2900" y="260" as="targetPoint" />
          </mxGeometry>
        </mxCell>
        <mxCell id="MbpDUtjtTkJc41aYU_he-96" value="" style="endArrow=none;html=1;rounded=0;exitX=0.5;exitY=0;exitDx=0;exitDy=0;entryX=1;entryY=1;entryDx=0;entryDy=0;" parent="1" source="MbpDUtjtTkJc41aYU_he-85" target="MbpDUtjtTkJc41aYU_he-71" edge="1">
          <mxGeometry width="50" height="50" relative="1" as="geometry">
            <mxPoint x="2850" y="310" as="sourcePoint" />
            <mxPoint x="2900" y="260" as="targetPoint" />
          </mxGeometry>
        </mxCell>
        <mxCell id="MbpDUtjtTkJc41aYU_he-98" value="Virág" style="ellipse;whiteSpace=wrap;html=1;" parent="1" vertex="1">
          <mxGeometry x="2985" y="205" width="110" height="70" as="geometry" />
        </mxCell>
        <mxCell id="MbpDUtjtTkJc41aYU_he-99" value="M - CS" style="rhombus;whiteSpace=wrap;html=1;" parent="1" vertex="1">
          <mxGeometry x="950" y="240" width="80" height="80" as="geometry" />
        </mxCell>
        <mxCell id="MbpDUtjtTkJc41aYU_he-100" value="" style="endArrow=none;html=1;rounded=0;exitX=1;exitY=0.5;exitDx=0;exitDy=0;entryX=0.5;entryY=0;entryDx=0;entryDy=0;" parent="1" source="MbpDUtjtTkJc41aYU_he-29" target="MbpDUtjtTkJc41aYU_he-99" edge="1">
          <mxGeometry width="50" height="50" relative="1" as="geometry">
            <mxPoint x="910" y="430" as="sourcePoint" />
            <mxPoint x="960" y="380" as="targetPoint" />
          </mxGeometry>
        </mxCell>
        <mxCell id="MbpDUtjtTkJc41aYU_he-102" value="" style="rounded=0;whiteSpace=wrap;html=1;" parent="1" vertex="1">
          <mxGeometry x="-505" y="365" width="30" height="60" as="geometry" />
        </mxCell>
        <mxCell id="MbpDUtjtTkJc41aYU_he-103" value="" style="endArrow=none;html=1;rounded=0;exitX=0.5;exitY=0;exitDx=0;exitDy=0;entryX=0.5;entryY=1;entryDx=0;entryDy=0;" parent="1" source="MbpDUtjtTkJc41aYU_he-102" target="MbpDUtjtTkJc41aYU_he-42" edge="1">
          <mxGeometry width="50" height="50" relative="1" as="geometry">
            <mxPoint x="-170" y="335" as="sourcePoint" />
            <mxPoint x="-120" y="285" as="targetPoint" />
          </mxGeometry>
        </mxCell>
        <mxCell id="MbpDUtjtTkJc41aYU_he-104" value="" style="rounded=0;whiteSpace=wrap;html=1;" parent="1" vertex="1">
          <mxGeometry x="-400" y="435" width="30" height="60" as="geometry" />
        </mxCell>
        <mxCell id="MbpDUtjtTkJc41aYU_he-105" value="" style="endArrow=none;html=1;rounded=0;exitX=0.5;exitY=0;exitDx=0;exitDy=0;entryX=0.5;entryY=1;entryDx=0;entryDy=0;" parent="1" source="MbpDUtjtTkJc41aYU_he-104" edge="1">
          <mxGeometry width="50" height="50" relative="1" as="geometry">
            <mxPoint x="-65" y="405" as="sourcePoint" />
            <mxPoint x="-385" y="395" as="targetPoint" />
          </mxGeometry>
        </mxCell>
        <mxCell id="MbpDUtjtTkJc41aYU_he-106" value="" style="rounded=0;whiteSpace=wrap;html=1;" parent="1" vertex="1">
          <mxGeometry x="-255" y="435" width="30" height="60" as="geometry" />
        </mxCell>
        <mxCell id="MbpDUtjtTkJc41aYU_he-107" value="" style="endArrow=none;html=1;rounded=0;exitX=0.5;exitY=0;exitDx=0;exitDy=0;entryX=0.5;entryY=1;entryDx=0;entryDy=0;" parent="1" source="MbpDUtjtTkJc41aYU_he-106" edge="1">
          <mxGeometry width="50" height="50" relative="1" as="geometry">
            <mxPoint x="80" y="405" as="sourcePoint" />
            <mxPoint x="-240" y="395" as="targetPoint" />
          </mxGeometry>
        </mxCell>
        <mxCell id="MbpDUtjtTkJc41aYU_he-108" value="" style="rounded=0;whiteSpace=wrap;html=1;" parent="1" vertex="1">
          <mxGeometry x="-115" y="435" width="30" height="60" as="geometry" />
        </mxCell>
        <mxCell id="MbpDUtjtTkJc41aYU_he-109" value="" style="endArrow=none;html=1;rounded=0;exitX=0.5;exitY=0;exitDx=0;exitDy=0;entryX=0.5;entryY=1;entryDx=0;entryDy=0;" parent="1" source="MbpDUtjtTkJc41aYU_he-108" edge="1">
          <mxGeometry width="50" height="50" relative="1" as="geometry">
            <mxPoint x="220" y="405" as="sourcePoint" />
            <mxPoint x="-100" y="395" as="targetPoint" />
          </mxGeometry>
        </mxCell>
        <mxCell id="MbpDUtjtTkJc41aYU_he-110" value="" style="rounded=0;whiteSpace=wrap;html=1;" parent="1" vertex="1">
          <mxGeometry x="625" y="430" width="30" height="60" as="geometry" />
        </mxCell>
        <mxCell id="MbpDUtjtTkJc41aYU_he-111" value="" style="endArrow=none;html=1;rounded=0;exitX=0.5;exitY=0;exitDx=0;exitDy=0;entryX=0.5;entryY=1;entryDx=0;entryDy=0;" parent="1" source="MbpDUtjtTkJc41aYU_he-110" edge="1" target="MbpDUtjtTkJc41aYU_he-34">
          <mxGeometry width="50" height="50" relative="1" as="geometry">
            <mxPoint x="980" y="400" as="sourcePoint" />
            <mxPoint x="660" y="390" as="targetPoint" />
          </mxGeometry>
        </mxCell>
        <mxCell id="MbpDUtjtTkJc41aYU_he-114" value="" style="rounded=0;whiteSpace=wrap;html=1;" parent="1" vertex="1">
          <mxGeometry x="935" y="430" width="30" height="60" as="geometry" />
        </mxCell>
        <mxCell id="MbpDUtjtTkJc41aYU_he-115" value="" style="endArrow=none;html=1;rounded=0;exitX=0.5;exitY=0;exitDx=0;exitDy=0;entryX=0.5;entryY=1;entryDx=0;entryDy=0;" parent="1" source="MbpDUtjtTkJc41aYU_he-114" edge="1" target="MbpDUtjtTkJc41aYU_he-36">
          <mxGeometry width="50" height="50" relative="1" as="geometry">
            <mxPoint x="1260" y="400" as="sourcePoint" />
            <mxPoint x="940" y="390" as="targetPoint" />
          </mxGeometry>
        </mxCell>
        <mxCell id="MbpDUtjtTkJc41aYU_he-122" value="" style="rounded=0;whiteSpace=wrap;html=1;" parent="1" vertex="1">
          <mxGeometry x="1585" y="430" width="30" height="60" as="geometry" />
        </mxCell>
        <mxCell id="MbpDUtjtTkJc41aYU_he-123" value="" style="endArrow=none;html=1;rounded=0;exitX=0.5;exitY=0;exitDx=0;exitDy=0;entryX=0.5;entryY=1;entryDx=0;entryDy=0;" parent="1" edge="1">
          <mxGeometry width="50" height="50" relative="1" as="geometry">
            <mxPoint x="1599.5" y="430" as="sourcePoint" />
            <mxPoint x="1599.5" y="390" as="targetPoint" />
          </mxGeometry>
        </mxCell>
        <mxCell id="MbpDUtjtTkJc41aYU_he-124" value="" style="rounded=0;whiteSpace=wrap;html=1;" parent="1" vertex="1">
          <mxGeometry x="1185" y="430" width="30" height="60" as="geometry" />
        </mxCell>
        <mxCell id="MbpDUtjtTkJc41aYU_he-125" value="" style="endArrow=none;html=1;rounded=0;exitX=0.5;exitY=0;exitDx=0;exitDy=0;entryX=0.5;entryY=1;entryDx=0;entryDy=0;" parent="1" source="MbpDUtjtTkJc41aYU_he-124" edge="1">
          <mxGeometry width="50" height="50" relative="1" as="geometry">
            <mxPoint x="1520" y="400" as="sourcePoint" />
            <mxPoint x="1200" y="390" as="targetPoint" />
          </mxGeometry>
        </mxCell>
        <mxCell id="MbpDUtjtTkJc41aYU_he-130" value="" style="rounded=0;whiteSpace=wrap;html=1;" parent="1" vertex="1">
          <mxGeometry x="1755" y="430" width="30" height="60" as="geometry" />
        </mxCell>
        <mxCell id="MbpDUtjtTkJc41aYU_he-131" value="" style="endArrow=none;html=1;rounded=0;exitX=0.5;exitY=0;exitDx=0;exitDy=0;entryX=0.5;entryY=1;entryDx=0;entryDy=0;" parent="1" source="MbpDUtjtTkJc41aYU_he-130" edge="1">
          <mxGeometry width="50" height="50" relative="1" as="geometry">
            <mxPoint x="2090" y="400" as="sourcePoint" />
            <mxPoint x="1770" y="390" as="targetPoint" />
          </mxGeometry>
        </mxCell>
        <mxCell id="MbpDUtjtTkJc41aYU_he-132" value="" style="rounded=0;whiteSpace=wrap;html=1;" parent="1" vertex="1">
          <mxGeometry x="2068" y="430" width="30" height="60" as="geometry" />
        </mxCell>
        <mxCell id="MbpDUtjtTkJc41aYU_he-133" value="" style="endArrow=none;html=1;rounded=0;exitX=0.5;exitY=0;exitDx=0;exitDy=0;entryX=0.5;entryY=1;entryDx=0;entryDy=0;" parent="1" source="MbpDUtjtTkJc41aYU_he-132" edge="1">
          <mxGeometry width="50" height="50" relative="1" as="geometry">
            <mxPoint x="2403" y="400" as="sourcePoint" />
            <mxPoint x="2083" y="390" as="targetPoint" />
          </mxGeometry>
        </mxCell>
        <mxCell id="MbpDUtjtTkJc41aYU_he-134" value="" style="rounded=0;whiteSpace=wrap;html=1;" parent="1" vertex="1">
          <mxGeometry x="2475" y="440" width="30" height="60" as="geometry" />
        </mxCell>
        <mxCell id="MbpDUtjtTkJc41aYU_he-135" value="" style="endArrow=none;html=1;rounded=0;exitX=0.5;exitY=0;exitDx=0;exitDy=0;entryX=0.5;entryY=1;entryDx=0;entryDy=0;" parent="1" source="MbpDUtjtTkJc41aYU_he-134" target="MbpDUtjtTkJc41aYU_he-70" edge="1">
          <mxGeometry width="50" height="50" relative="1" as="geometry">
            <mxPoint x="2710" y="410" as="sourcePoint" />
            <mxPoint x="2390" y="400" as="targetPoint" />
          </mxGeometry>
        </mxCell>
        <mxCell id="MbpDUtjtTkJc41aYU_he-138" value="" style="rounded=0;whiteSpace=wrap;html=1;" parent="1" vertex="1">
          <mxGeometry x="2795" y="430" width="30" height="60" as="geometry" />
        </mxCell>
        <mxCell id="MbpDUtjtTkJc41aYU_he-139" value="" style="endArrow=none;html=1;rounded=0;exitX=0.5;exitY=0;exitDx=0;exitDy=0;entryX=0.5;entryY=1;entryDx=0;entryDy=0;" parent="1" source="MbpDUtjtTkJc41aYU_he-138" edge="1">
          <mxGeometry width="50" height="50" relative="1" as="geometry">
            <mxPoint x="3130" y="400" as="sourcePoint" />
            <mxPoint x="2810" y="390" as="targetPoint" />
          </mxGeometry>
        </mxCell>
        <mxCell id="MbpDUtjtTkJc41aYU_he-149" value="" style="rounded=0;whiteSpace=wrap;html=1;" parent="1" vertex="1">
          <mxGeometry x="3235" y="430" width="30" height="60" as="geometry" />
        </mxCell>
        <mxCell id="MbpDUtjtTkJc41aYU_he-150" value="" style="endArrow=none;html=1;rounded=0;exitX=0.5;exitY=0;exitDx=0;exitDy=0;entryX=0.5;entryY=1;entryDx=0;entryDy=0;" parent="1" source="MbpDUtjtTkJc41aYU_he-149" target="MbpDUtjtTkJc41aYU_he-85" edge="1">
          <mxGeometry width="50" height="50" relative="1" as="geometry">
            <mxPoint x="3570" y="410" as="sourcePoint" />
            <mxPoint x="3250" y="400" as="targetPoint" />
          </mxGeometry>
        </mxCell>
        <mxCell id="MbpDUtjtTkJc41aYU_he-155" value="" style="endArrow=none;dashed=1;html=1;dashPattern=1 3;strokeWidth=2;rounded=0;exitX=1;exitY=0.5;exitDx=0;exitDy=0;entryX=0;entryY=0.5;entryDx=0;entryDy=0;" parent="1" source="MbpDUtjtTkJc41aYU_he-99" target="MbpDUtjtTkJc41aYU_he-24" edge="1">
          <mxGeometry width="50" height="50" relative="1" as="geometry">
            <mxPoint x="850" y="430" as="sourcePoint" />
            <mxPoint x="900" y="380" as="targetPoint" />
          </mxGeometry>
        </mxCell>
        <mxCell id="MbpDUtjtTkJc41aYU_he-157" value="Sz - CS" style="rhombus;whiteSpace=wrap;html=1;" parent="1" vertex="1">
          <mxGeometry x="2120" y="240" width="80" height="80" as="geometry" />
        </mxCell>
        <mxCell id="MbpDUtjtTkJc41aYU_he-158" value="" style="endArrow=none;html=1;rounded=0;exitX=1;exitY=0.5;exitDx=0;exitDy=0;entryX=0.5;entryY=0;entryDx=0;entryDy=0;" parent="1" source="MbpDUtjtTkJc41aYU_he-51" target="MbpDUtjtTkJc41aYU_he-157" edge="1">
          <mxGeometry width="50" height="50" relative="1" as="geometry">
            <mxPoint x="1640" y="430" as="sourcePoint" />
            <mxPoint x="1690" y="380" as="targetPoint" />
          </mxGeometry>
        </mxCell>
        <mxCell id="MbpDUtjtTkJc41aYU_he-159" value="" style="endArrow=none;dashed=1;html=1;dashPattern=1 3;strokeWidth=2;rounded=0;entryX=0.5;entryY=1;entryDx=0;entryDy=0;exitX=1;exitY=1;exitDx=0;exitDy=0;" parent="1" source="MbpDUtjtTkJc41aYU_he-24" target="MbpDUtjtTkJc41aYU_he-157" edge="1">
          <mxGeometry width="50" height="50" relative="1" as="geometry">
            <mxPoint x="1640" y="430" as="sourcePoint" />
            <mxPoint x="1690" y="380" as="targetPoint" />
            <Array as="points">
              <mxPoint x="1120" y="640" />
              <mxPoint x="1760" y="630" />
              <mxPoint x="2160" y="640" />
            </Array>
          </mxGeometry>
        </mxCell>
        <mxCell id="MbpDUtjtTkJc41aYU_he-163" value="Rendelés" style="ellipse;whiteSpace=wrap;html=1;" parent="1" vertex="1">
          <mxGeometry x="2430" y="200" width="120" height="80" as="geometry" />
        </mxCell>
        <mxCell id="MbpDUtjtTkJc41aYU_he-164" value="Tartalmazza" style="ellipse;whiteSpace=wrap;html=1;" parent="1" vertex="1">
          <mxGeometry x="2435" y="205" width="110" height="70" as="geometry" />
        </mxCell>
        <mxCell id="MbpDUtjtTkJc41aYU_he-165" value="" style="endArrow=none;html=1;rounded=0;exitX=1;exitY=0;exitDx=0;exitDy=0;entryX=0.5;entryY=0;entryDx=0;entryDy=0;" parent="1" source="MbpDUtjtTkJc41aYU_he-10" target="MbpDUtjtTkJc41aYU_he-71" edge="1">
          <mxGeometry width="50" height="50" relative="1" as="geometry">
            <mxPoint x="1820" y="130" as="sourcePoint" />
            <mxPoint x="1870" y="80" as="targetPoint" />
          </mxGeometry>
        </mxCell>
        <mxCell id="MbpDUtjtTkJc41aYU_he-168" value="T - Sz" style="rhombus;whiteSpace=wrap;html=1;" parent="1" vertex="1">
          <mxGeometry x="2280" y="240" width="80" height="80" as="geometry" />
        </mxCell>
        <mxCell id="MbpDUtjtTkJc41aYU_he-169" value="T-V" style="rhombus;whiteSpace=wrap;html=1;" parent="1" vertex="1">
          <mxGeometry x="2640" y="240" width="80" height="80" as="geometry" />
        </mxCell>
        <mxCell id="MbpDUtjtTkJc41aYU_he-170" value="" style="endArrow=none;html=1;rounded=0;entryX=0.5;entryY=0;entryDx=0;entryDy=0;exitX=0;exitY=0.5;exitDx=0;exitDy=0;" parent="1" source="MbpDUtjtTkJc41aYU_he-163" target="MbpDUtjtTkJc41aYU_he-168" edge="1">
          <mxGeometry width="50" height="50" relative="1" as="geometry">
            <mxPoint x="2160" y="410" as="sourcePoint" />
            <mxPoint x="2210" y="360" as="targetPoint" />
          </mxGeometry>
        </mxCell>
        <mxCell id="MbpDUtjtTkJc41aYU_he-171" value="" style="endArrow=none;html=1;rounded=0;entryX=1;entryY=0.5;entryDx=0;entryDy=0;exitX=0.5;exitY=0;exitDx=0;exitDy=0;" parent="1" source="MbpDUtjtTkJc41aYU_he-169" target="MbpDUtjtTkJc41aYU_he-163" edge="1">
          <mxGeometry width="50" height="50" relative="1" as="geometry">
            <mxPoint x="2570" y="410" as="sourcePoint" />
            <mxPoint x="2620" y="360" as="targetPoint" />
          </mxGeometry>
        </mxCell>
        <mxCell id="MbpDUtjtTkJc41aYU_he-174" value="" style="endArrow=none;dashed=1;html=1;dashPattern=1 3;strokeWidth=2;rounded=0;entryX=0.5;entryY=1;entryDx=0;entryDy=0;exitX=0.5;exitY=1;exitDx=0;exitDy=0;" parent="1" source="MbpDUtjtTkJc41aYU_he-24" target="MbpDUtjtTkJc41aYU_he-168" edge="1">
          <mxGeometry width="50" height="50" relative="1" as="geometry">
            <mxPoint x="1130" y="680" as="sourcePoint" />
            <mxPoint x="1910" y="460" as="targetPoint" />
            <Array as="points">
              <mxPoint x="1100" y="680" />
              <mxPoint x="2320" y="680" />
            </Array>
          </mxGeometry>
        </mxCell>
        <mxCell id="MbpDUtjtTkJc41aYU_he-175" value="" style="endArrow=none;dashed=1;html=1;dashPattern=1 3;strokeWidth=2;rounded=0;entryX=0.5;entryY=1;entryDx=0;entryDy=0;exitX=0.5;exitY=1;exitDx=0;exitDy=0;" parent="1" source="MbpDUtjtTkJc41aYU_he-83" target="MbpDUtjtTkJc41aYU_he-169" edge="1">
          <mxGeometry width="50" height="50" relative="1" as="geometry">
            <mxPoint x="2920" y="510" as="sourcePoint" />
            <mxPoint x="2970" y="460" as="targetPoint" />
            <Array as="points">
              <mxPoint x="3371" y="640" />
              <mxPoint x="2680" y="640" />
            </Array>
          </mxGeometry>
        </mxCell>
        <mxCell id="MbpDUtjtTkJc41aYU_he-176" value="" style="endArrow=classic;html=1;rounded=0;entryX=0;entryY=1;entryDx=0;entryDy=0;" parent="1" target="MbpDUtjtTkJc41aYU_he-24" edge="1">
          <mxGeometry width="50" height="50" relative="1" as="geometry">
            <mxPoint x="1080" y="310" as="sourcePoint" />
            <mxPoint x="1390" y="460" as="targetPoint" />
          </mxGeometry>
        </mxCell>
        <mxCell id="MbpDUtjtTkJc41aYU_he-177" value="" style="endArrow=classic;html=1;rounded=0;entryX=0;entryY=0.5;entryDx=0;entryDy=0;" parent="1" target="MbpDUtjtTkJc41aYU_he-24" edge="1">
          <mxGeometry width="50" height="50" relative="1" as="geometry">
            <mxPoint x="1050" y="280" as="sourcePoint" />
            <mxPoint x="1390" y="460" as="targetPoint" />
          </mxGeometry>
        </mxCell>
        <mxCell id="MbpDUtjtTkJc41aYU_he-178" value="" style="endArrow=classic;html=1;rounded=0;entryX=0.5;entryY=1;entryDx=0;entryDy=0;" parent="1" target="MbpDUtjtTkJc41aYU_he-24" edge="1">
          <mxGeometry width="50" height="50" relative="1" as="geometry">
            <mxPoint x="1100" y="340" as="sourcePoint" />
            <mxPoint x="1390" y="460" as="targetPoint" />
          </mxGeometry>
        </mxCell>
        <mxCell id="MbpDUtjtTkJc41aYU_he-179" value="" style="endArrow=classic;html=1;rounded=0;entryX=1;entryY=1;entryDx=0;entryDy=0;" parent="1" target="MbpDUtjtTkJc41aYU_he-24" edge="1">
          <mxGeometry width="50" height="50" relative="1" as="geometry">
            <mxPoint x="1120" y="320" as="sourcePoint" />
            <mxPoint x="1390" y="460" as="targetPoint" />
          </mxGeometry>
        </mxCell>
        <mxCell id="AR8MBKGco4_q-TBaMEGQ-1" value="" style="rounded=0;whiteSpace=wrap;html=1;" parent="1" vertex="1">
          <mxGeometry x="1385" y="430" width="30" height="60" as="geometry" />
        </mxCell>
        <mxCell id="AR8MBKGco4_q-TBaMEGQ-2" value="" style="endArrow=none;html=1;rounded=0;exitX=0.5;exitY=0;exitDx=0;exitDy=0;entryX=0.5;entryY=1;entryDx=0;entryDy=0;" parent="1" edge="1">
          <mxGeometry width="50" height="50" relative="1" as="geometry">
            <mxPoint x="1399.58" y="430" as="sourcePoint" />
            <mxPoint x="1399.58" y="390" as="targetPoint" />
          </mxGeometry>
        </mxCell>
        <mxCell id="AR8MBKGco4_q-TBaMEGQ-3" value="" style="endArrow=none;dashed=1;html=1;rounded=0;entryX=0;entryY=0.5;entryDx=0;entryDy=0;exitX=0;exitY=0.5;exitDx=0;exitDy=0;" parent="1" source="MbpDUtjtTkJc41aYU_he-42" target="AR8MBKGco4_q-TBaMEGQ-11" edge="1">
          <mxGeometry width="50" height="50" relative="1" as="geometry">
            <mxPoint x="-480" y="600" as="sourcePoint" />
            <mxPoint x="600" y="340" as="targetPoint" />
            <Array as="points">
              <mxPoint x="-530" y="600" />
              <mxPoint y="600" />
            </Array>
          </mxGeometry>
        </mxCell>
        <mxCell id="AR8MBKGco4_q-TBaMEGQ-4" value="" style="endArrow=classic;html=1;rounded=0;entryX=0;entryY=0.5;entryDx=0;entryDy=0;" parent="1" target="MbpDUtjtTkJc41aYU_he-32" edge="1">
          <mxGeometry width="50" height="50" relative="1" as="geometry">
            <mxPoint x="520" y="280" as="sourcePoint" />
            <mxPoint x="600" y="340" as="targetPoint" />
          </mxGeometry>
        </mxCell>
        <mxCell id="AR8MBKGco4_q-TBaMEGQ-5" value="ár" style="ellipse;whiteSpace=wrap;html=1;" parent="1" vertex="1">
          <mxGeometry x="150" y="320" width="120" height="80" as="geometry" />
        </mxCell>
        <mxCell id="AR8MBKGco4_q-TBaMEGQ-6" value="" style="endArrow=none;html=1;rounded=0;exitX=0.5;exitY=0;exitDx=0;exitDy=0;entryX=0.5;entryY=1;entryDx=0;entryDy=0;" parent="1" source="AR8MBKGco4_q-TBaMEGQ-5" target="AR8MBKGco4_q-TBaMEGQ-10" edge="1">
          <mxGeometry width="50" height="50" relative="1" as="geometry">
            <mxPoint x="-90" y="430" as="sourcePoint" />
            <mxPoint x="231" y="235" as="targetPoint" />
          </mxGeometry>
        </mxCell>
        <mxCell id="AR8MBKGco4_q-TBaMEGQ-7" value="" style="rounded=0;whiteSpace=wrap;html=1;" parent="1" vertex="1">
          <mxGeometry x="195" y="440" width="30" height="60" as="geometry" />
        </mxCell>
        <mxCell id="AR8MBKGco4_q-TBaMEGQ-8" value="" style="endArrow=none;html=1;rounded=0;exitX=0.5;exitY=0;exitDx=0;exitDy=0;entryX=0.5;entryY=1;entryDx=0;entryDy=0;" parent="1" source="AR8MBKGco4_q-TBaMEGQ-7" target="AR8MBKGco4_q-TBaMEGQ-5" edge="1">
          <mxGeometry width="50" height="50" relative="1" as="geometry">
            <mxPoint x="430" y="410" as="sourcePoint" />
            <mxPoint x="110" y="400" as="targetPoint" />
          </mxGeometry>
        </mxCell>
        <mxCell id="AR8MBKGco4_q-TBaMEGQ-9" value="Rendelés" style="ellipse;whiteSpace=wrap;html=1;" parent="1" vertex="1">
          <mxGeometry x="150" y="200" width="120" height="80" as="geometry" />
        </mxCell>
        <mxCell id="AR8MBKGco4_q-TBaMEGQ-10" value="Megrendeli" style="ellipse;whiteSpace=wrap;html=1;" parent="1" vertex="1">
          <mxGeometry x="155" y="205" width="110" height="70" as="geometry" />
        </mxCell>
        <mxCell id="AR8MBKGco4_q-TBaMEGQ-11" value="V - M" style="rhombus;whiteSpace=wrap;html=1;" parent="1" vertex="1">
          <mxGeometry y="240" width="80" height="80" as="geometry" />
        </mxCell>
        <mxCell id="AR8MBKGco4_q-TBaMEGQ-12" value="M - M" style="rhombus;whiteSpace=wrap;html=1;" parent="1" vertex="1">
          <mxGeometry x="360" y="240" width="80" height="80" as="geometry" />
        </mxCell>
        <mxCell id="AR8MBKGco4_q-TBaMEGQ-13" value="" style="endArrow=none;html=1;rounded=0;entryX=0.5;entryY=0;entryDx=0;entryDy=0;exitX=0;exitY=0.5;exitDx=0;exitDy=0;" parent="1" target="AR8MBKGco4_q-TBaMEGQ-11" edge="1">
          <mxGeometry width="50" height="50" relative="1" as="geometry">
            <mxPoint x="150.00000000000864" y="240" as="sourcePoint" />
            <mxPoint x="-70" y="360" as="targetPoint" />
          </mxGeometry>
        </mxCell>
        <mxCell id="AR8MBKGco4_q-TBaMEGQ-14" value="" style="endArrow=none;html=1;rounded=0;entryX=1;entryY=0.5;entryDx=0;entryDy=0;exitX=0.5;exitY=0;exitDx=0;exitDy=0;" parent="1" edge="1">
          <mxGeometry width="50" height="50" relative="1" as="geometry">
            <mxPoint x="400" y="240" as="sourcePoint" />
            <mxPoint x="269.9999999999918" y="240" as="targetPoint" />
          </mxGeometry>
        </mxCell>
        <mxCell id="AR8MBKGco4_q-TBaMEGQ-16" value="" style="endArrow=none;dashed=1;html=1;dashPattern=1 3;strokeWidth=2;rounded=0;entryX=1;entryY=0.5;entryDx=0;entryDy=0;exitX=0;exitY=0.5;exitDx=0;exitDy=0;" parent="1" source="MbpDUtjtTkJc41aYU_he-32" target="AR8MBKGco4_q-TBaMEGQ-12" edge="1">
          <mxGeometry width="50" height="50" relative="1" as="geometry">
            <mxPoint x="210" y="250" as="sourcePoint" />
            <mxPoint x="260" y="200" as="targetPoint" />
          </mxGeometry>
        </mxCell>
        <mxCell id="AR8MBKGco4_q-TBaMEGQ-17" value="" style="endArrow=classic;html=1;rounded=0;entryX=0;entryY=0.5;entryDx=0;entryDy=0;" parent="1" target="AR8MBKGco4_q-TBaMEGQ-11" edge="1">
          <mxGeometry width="50" height="50" relative="1" as="geometry">
            <mxPoint y="310" as="sourcePoint" />
            <mxPoint x="260" y="200" as="targetPoint" />
          </mxGeometry>
        </mxCell>
        <mxCell id="AR8MBKGco4_q-TBaMEGQ-18" value="" style="endArrow=none;html=1;rounded=0;exitX=0;exitY=0.5;exitDx=0;exitDy=0;entryX=0.5;entryY=0;entryDx=0;entryDy=0;" parent="1" source="MbpDUtjtTkJc41aYU_he-10" target="AR8MBKGco4_q-TBaMEGQ-9" edge="1">
          <mxGeometry width="50" height="50" relative="1" as="geometry">
            <mxPoint x="1320" y="40" as="sourcePoint" />
            <mxPoint x="750" y="150" as="targetPoint" />
          </mxGeometry>
        </mxCell>
        <mxCell id="n3wLMcjpdgjGUcBipqMJ-1" value="Év" style="ellipse;whiteSpace=wrap;html=1;" vertex="1" parent="1">
          <mxGeometry x="640" y="520" width="100" height="60" as="geometry" />
        </mxCell>
        <mxCell id="n3wLMcjpdgjGUcBipqMJ-2" value="Nap" style="ellipse;whiteSpace=wrap;html=1;" vertex="1" parent="1">
          <mxGeometry x="860" y="520" width="100" height="60" as="geometry" />
        </mxCell>
        <mxCell id="n3wLMcjpdgjGUcBipqMJ-3" value="Hónap" style="ellipse;whiteSpace=wrap;html=1;" vertex="1" parent="1">
          <mxGeometry x="750" y="520" width="100" height="60" as="geometry" />
        </mxCell>
        <mxCell id="n3wLMcjpdgjGUcBipqMJ-6" value="" style="endArrow=none;html=1;rounded=0;exitX=0.5;exitY=0;exitDx=0;exitDy=0;entryX=0;entryY=1;entryDx=0;entryDy=0;" edge="1" parent="1" source="n3wLMcjpdgjGUcBipqMJ-1" target="MbpDUtjtTkJc41aYU_he-35">
          <mxGeometry width="50" height="50" relative="1" as="geometry">
            <mxPoint x="890" y="370" as="sourcePoint" />
            <mxPoint x="940" y="320" as="targetPoint" />
          </mxGeometry>
        </mxCell>
        <mxCell id="n3wLMcjpdgjGUcBipqMJ-7" value="" style="endArrow=none;html=1;rounded=0;exitX=0.5;exitY=0;exitDx=0;exitDy=0;entryX=1;entryY=1;entryDx=0;entryDy=0;" edge="1" parent="1" source="n3wLMcjpdgjGUcBipqMJ-2" target="MbpDUtjtTkJc41aYU_he-35">
          <mxGeometry width="50" height="50" relative="1" as="geometry">
            <mxPoint x="890" y="370" as="sourcePoint" />
            <mxPoint x="940" y="320" as="targetPoint" />
          </mxGeometry>
        </mxCell>
        <mxCell id="n3wLMcjpdgjGUcBipqMJ-8" value="" style="endArrow=none;html=1;rounded=0;exitX=0.5;exitY=0;exitDx=0;exitDy=0;entryX=0.5;entryY=1;entryDx=0;entryDy=0;" edge="1" parent="1" source="n3wLMcjpdgjGUcBipqMJ-3" target="MbpDUtjtTkJc41aYU_he-35">
          <mxGeometry width="50" height="50" relative="1" as="geometry">
            <mxPoint x="890" y="370" as="sourcePoint" />
            <mxPoint x="940" y="320" as="targetPoint" />
          </mxGeometry>
        </mxCell>
        <mxCell id="n3wLMcjpdgjGUcBipqMJ-9" value="" style="rounded=0;whiteSpace=wrap;html=1;" vertex="1" parent="1">
          <mxGeometry x="675" y="620" width="30" height="60" as="geometry" />
        </mxCell>
        <mxCell id="n3wLMcjpdgjGUcBipqMJ-10" value="" style="endArrow=none;html=1;rounded=0;exitX=0.5;exitY=0;exitDx=0;exitDy=0;entryX=0.5;entryY=1;entryDx=0;entryDy=0;" edge="1" parent="1" source="n3wLMcjpdgjGUcBipqMJ-9">
          <mxGeometry width="50" height="50" relative="1" as="geometry">
            <mxPoint x="1030" y="590" as="sourcePoint" />
            <mxPoint x="690" y="580" as="targetPoint" />
          </mxGeometry>
        </mxCell>
        <mxCell id="n3wLMcjpdgjGUcBipqMJ-11" value="" style="rounded=0;whiteSpace=wrap;html=1;" vertex="1" parent="1">
          <mxGeometry x="785" y="620" width="30" height="60" as="geometry" />
        </mxCell>
        <mxCell id="n3wLMcjpdgjGUcBipqMJ-12" value="" style="endArrow=none;html=1;rounded=0;exitX=0.5;exitY=0;exitDx=0;exitDy=0;entryX=0.5;entryY=1;entryDx=0;entryDy=0;" edge="1" parent="1" source="n3wLMcjpdgjGUcBipqMJ-11">
          <mxGeometry width="50" height="50" relative="1" as="geometry">
            <mxPoint x="1140" y="590" as="sourcePoint" />
            <mxPoint x="800" y="580" as="targetPoint" />
          </mxGeometry>
        </mxCell>
        <mxCell id="n3wLMcjpdgjGUcBipqMJ-13" value="" style="rounded=0;whiteSpace=wrap;html=1;" vertex="1" parent="1">
          <mxGeometry x="895" y="620" width="30" height="60" as="geometry" />
        </mxCell>
        <mxCell id="n3wLMcjpdgjGUcBipqMJ-14" value="" style="endArrow=none;html=1;rounded=0;exitX=0.5;exitY=0;exitDx=0;exitDy=0;entryX=0.5;entryY=1;entryDx=0;entryDy=0;" edge="1" parent="1" source="n3wLMcjpdgjGUcBipqMJ-13">
          <mxGeometry width="50" height="50" relative="1" as="geometry">
            <mxPoint x="1250" y="590" as="sourcePoint" />
            <mxPoint x="910" y="580" as="targetPoint" />
          </mxGeometry>
        </mxCell>
      </root>
    </mxGraphModel>
  </diagram>
</mxfile>
